Coordinates
version=1
nRows=16
nColumns=36
inDegrees=yes

Units are S.I. units (second, meters, Newtons, ...)
If the header above contains a line with 'inDegrees', this indicates whether rotational values are in degrees (yes) or radians (no).

endheader
time	pelvis_tilt	pelvis_list	pelvis_rotation	pelvis_tx	pelvis_ty	pelvis_tz	hip_flexion_r	hip_adduction_r	hip_rotation_r	knee_angle_r	knee_angle_r_beta	ankle_angle_r	subtalar_angle_r	mtp_angle_r	hip_flexion_l	hip_adduction_l	hip_rotation_l	knee_angle_l	knee_angle_l_beta	ankle_angle_l	subtalar_angle_l	mtp_angle_l	lumbar_extension	lumbar_bending	lumbar_rotation	arm_flex_r	arm_add_r	arm_rot_r	elbow_flex_r	pro_sup_r	arm_flex_l	arm_add_l	arm_rot_l	elbow_flex_l	pro_sup_l
      2.21666670	     -7.21503114	      0.05003826	     -7.76392268	      0.58018105	      0.93025563	      0.04101939	     11.80868939	     -2.51870927	     -4.04608035	     14.33085440	      0.25012059	      8.97050463	     -1.81661211	     -7.49999987	     13.10207468	     -3.62658043	      0.27958271	     14.22870619	      0.24833777	      8.29055014	     -3.89223984	     -7.49999987	     -3.24313265	      2.15093341	      0.54305684	     49.74563778	     -4.65632114	     61.68193138	    126.69157489	     69.65719751	     45.31946172	      2.59650685	     66.29868423	    128.64849645	     80.00746575
      2.23333330	     -7.86135947	      0.22633078	     -8.13063845	      0.57408675	      0.92007884	      0.03673063	     14.62096365	     -2.90574257	     -3.75989115	     17.87525957	      0.31198213	     10.19915420	     -1.67854398	     -7.49999987	     15.68265349	     -3.70798846	     -0.12767167	     17.69097968	      0.30876584	      9.87758586	     -4.14474781	     -7.49999987	     -3.49145898	      2.20334136	      0.69156696	     50.83949683	     -3.93844511	     62.60512199	    127.33747520	     69.59566562	     46.05826209	      3.35777343	     65.73634101	    128.60175787	     78.75474261
      2.25000000	     -8.61077408	      0.42239143	     -8.35506612	      0.56774986	      0.91029853	      0.03831382	     17.91403955	     -3.39018511	     -3.70322901	     22.17511157	      0.38702871	     11.88631627	     -0.94386897	     -7.49999987	     18.74099550	     -3.80751702	     -0.41431147	     21.75519298	      0.37969975	     11.74505792	     -4.62982164	     -7.49999987	     -3.63526574	      2.22280839	      0.45498196	     52.23250962	     -3.33067611	     63.14458962	    127.50115045	     69.95043759	     46.98404179	      3.41170825	     64.87167110	    128.01991021	     78.26890664
      2.26666670	     -9.23364655	      0.64337628	     -8.62984030	      0.56825006	      0.89756682	      0.03807095	     21.41673373	     -3.91031335	     -3.34816477	     27.06290463	      0.47233679	     13.97480985	     -0.35302320	     -7.49999987	     22.14777345	     -4.00028419	     -0.91759072	     26.81503182	      0.46801059	     13.99690130	     -4.93281693	     -7.49999987	     -3.72333192	      2.08935573	      0.04221940	     53.55719878	     -2.54694996	     62.75645730	    128.20543161	     70.02696973	     47.84213020	      2.77122357	     64.54261678	    128.30808560	     77.66931768
      2.28333330	     -9.96319582	      0.91230155	     -8.81263028	      0.56910007	      0.89064635	      0.03842004	     24.63853422	     -4.45608184	     -3.27729564	     31.37063484	      0.54752087	     16.74855099	      1.32258600	     -7.49999987	     25.47502222	     -4.17971454	     -1.38526338	     31.61352872	      0.55176016	     16.31086130	     -5.02566880	     -7.49999987	     -3.47702970	      1.90404549	     -0.03703889	     53.67387982	     -2.48774901	     63.98452280	    129.11857426	     71.01065498	     47.08914496	      2.00732497	     65.93602535	    129.24101756	     78.60451084
      2.30000000	    -10.04973611	      0.89992777	     -8.94250357	      0.56921033	      0.88130754	      0.03854154	     26.74821182	     -4.72248448	     -3.18235041	     35.02692933	      0.61133524	     19.26036684	      2.13692157	     -7.49999987	     27.85558744	     -4.51986443	     -1.64857999	     36.11607013	      0.63034434	     18.05592346	     -5.63401695	     -7.49999987	     -4.24833346	      2.07015095	      0.67867702	     54.17334535	     -2.79398279	     64.60525600	    129.45521830	     71.18001076	     46.56542854	      2.81712779	     66.68112858	    130.13285313	     78.49039762
      2.31666670	    -11.13866690	      1.14499936	     -9.03082082	      0.56453092	      0.86787719	      0.03435736	     30.04238069	     -5.32788612	     -3.57637279	     38.88334562	      0.67864241	     22.46514719	      4.50482143	     -7.49999987	     31.26623539	     -4.77839812	     -2.04946618	     40.53753372	      0.70751343	     20.12092934	     -5.35096256	     -7.49999987	     -3.79615411	      2.09810995	      0.86251071	     54.75109592	     -3.75829659	     65.68891557	    130.34960241	     71.73893469	     47.06858281	      3.53073669	     67.39796360	    130.19470409	     78.87351946
      2.33333330	    -11.96823603	      1.31068242	     -9.09737048	      0.56472482	      0.85449353	      0.03439942	     32.70322534	     -5.78870244	     -3.83204060	     42.31455634	      0.73852833	     25.38349570	      6.01759680	     -7.49999987	     34.12753864	     -4.99887959	     -2.19292803	     44.57173724	      0.77792357	     21.88860176	     -5.59319875	     -7.49999987	     -3.46490890	      2.00510402	      0.97755131	     54.75165036	     -4.00647083	     64.83131885	    130.32931092	     81.04740545	     46.87846353	      3.77518746	     65.58964255	    128.31167865	     89.63603140
      2.35000000	    -12.36254332	      1.45461964	     -9.18871347	      0.56463748	      0.84284242	      0.03506273	     34.97321917	     -6.25063414	     -3.95249027	     45.80813949	      0.79950286	     28.19611141	      7.16960761	     -7.49999987	     36.51083315	     -5.24265563	     -2.46107114	     48.56412611	      0.84760390	     23.77122913	     -5.74916611	     -7.49999987	     -3.78567973	      2.04679166	      1.37229103	     54.89237115	     -4.91179029	     65.16068736	    130.32611319	     80.01079148	     47.03268881	      3.10634818	     66.06704401	    129.11810087	     88.23633731
      2.36666670	    -12.75977779	      1.62416339	     -9.38533734	      0.56388269	      0.83318417	      0.03541360	     37.05698137	     -6.68003389	     -4.04195428	     49.04998728	      0.85608378	     30.76388552	      8.34626519	     -7.49999987	     38.70454011	     -5.41351788	     -2.53362085	     52.28278326	      0.91250671	     25.71755197	     -5.77125943	     -7.49999987	     -3.83388727	      2.00062787	      1.80364519	     54.43256071	     -5.53743605	     65.65731495	    130.39074742	     78.19989526	     46.99116674	      3.19529294	     65.68971940	    128.81952539	     85.84047160
      2.38333330	    -13.02549548	      1.79447953	     -9.59346520	      0.56399367	      0.82383659	      0.03609807	     38.98808581	     -7.11931200	     -4.10381008	     52.16474643	      0.91044658	     33.07978823	      9.27054994	     -7.49999987	     40.63523243	     -5.54722815	     -2.52266217	     55.77670698	      0.97348718	     27.51507236	     -5.86354849	     -7.49999987	     -4.04963966	      1.91054526	      1.99536562	     54.80915431	     -5.37553214	     64.91960916	    129.30223762	     78.56650943	     47.97297066	      3.07415278	     66.76420334	    129.38083790	     86.39663321
      2.40000000	    -13.28423765	      1.96543086	     -9.71023566	      0.56300584	      0.82012191	      0.03597176	     40.51004434	     -7.53986110	     -4.20839111	     54.62406729	      0.95336982	     34.85303113	      9.98959163	     -7.49999987	     42.39806776	     -5.57050759	     -2.38031293	     58.86549854	      1.02739677	     28.75297413	     -6.25978830	     -7.49999987	     -4.98685932	      1.88779909	      2.10557423	     53.97531071	     -6.33847033	     66.51180974	    129.36138801	     77.88218167	     47.15283241	      1.97386759	     67.66480405	    129.13117025	     85.81119556
      2.41666670	    -13.66075408	      2.12556238	     -9.88081793	      0.56330533	      0.80796399	      0.03670588	     42.31821743	     -7.81771107	     -4.14678282	     57.34460771	      1.00085221	     36.62932605	     10.21184193	     -7.49999987	     44.22322279	     -5.68109605	     -2.31935282	     61.84380063	      1.07937794	     30.13064986	     -6.35983261	     -7.49999987	     -5.74628326	      1.68930884	      2.42345994	     54.03360327	     -6.06709118	     67.02552696	    128.80591894	     77.28156401	     47.46143363	      1.58803879	     66.06830542	    127.76263876	     84.89178169
      2.43333330	    -14.13747319	      2.24655180	    -10.08567770	      0.56278887	      0.79242458	      0.03676619	     44.47688882	     -8.00019633	     -3.97652988	     60.50429543	      1.05599917	     38.51954565	     10.33969290	     -7.49999987	     46.42246233	     -5.86013405	     -2.22288343	     65.16295909	      1.13730819	     31.55008460	     -6.56883729	     -7.49999987	     -5.79618676	      1.51942950	      2.41360683	     54.57078700	     -5.65482784	     67.11712892	    129.29775635	     77.23138671	     48.50235270	      1.58199441	     65.55745593	    127.41572369	     84.78221141
      2.45000000	    -14.23416083	      2.39051617	    -10.07712078	      0.56137071	      0.78941102	      0.03648263	     45.89485926	     -8.25852702	     -3.82441820	     63.03275155	      1.10012905	     40.07657057	     10.03111541	     -7.49999987	     47.93106793	     -5.82974916	     -2.06479877	     67.88855446	      1.18487880	     32.60735602	     -7.00467117	     -7.49999987	     -6.71581557	      1.26896807	      2.40968512	     54.16612926	     -6.14338011	     68.20886767	    128.86332581	     76.45777389	     48.53053257	      0.47543609	     64.91214511	    126.00382843	     83.86898272
      2.46666670	    -14.32498866	      2.50614839	    -10.01972188	      0.56009246	      0.78042901	      0.03613878	     47.19120700	     -8.42718345	     -3.57070141	     65.32610001	      1.14015553	     41.40670481	      9.47806088	     -7.49999987	     49.24750477	     -5.81056784	     -1.94287096	     70.22966591	      1.22573890	     33.35932555	     -7.49423260	     -7.49999987	     -7.44569620	      1.09894836	      2.63653817	     53.83743826	     -6.57059709	     67.64598843	    128.04650834	     84.24620891	     48.92937704	      0.34749671	     62.94720730	    124.86933361	     91.79382035
